<svg xmlns="http://www.w3.org/2000/svg" viewBox="0 0 24 24" fill="white">
  <path d="M1.175 12.225c-.051 0-.094.046-.101.1l-.233 2.154.233 2.105c.007.058.05.098.101.098.05 0 .09-.04.099-.098l.255-2.105-.27-2.154c-.009-.06-.04-.1-.09-.1m-.899.828c-.06 0-.091.037-.104.094L0 14.479l.165 1.308c.013.057.045.093.104.093.057 0 .091-.039.104-.093l.196-1.308-.196-1.332c-.013-.057-.047-.094-.104-.094M2.669 11.822c-.041-.052-.091-.078-.153-.078-.069 0-.116.029-.153.086l-.299 2.619.299 2.553c.037.057.084.086.153.086.069 0 .116-.029.153-.086l.349-2.553-.349-2.627zm1.298-.728c-.09-.057-.138-.086-.228-.086-.082 0-.149.029-.228.086l-.347 3.347.347 3.307c.037.057.084.086.159.086.074 0 .149-.029.228-.086l.399-3.307-.399-3.347zm2.771 6.693c.091-.057.138-.086.228-.086.082 0 .149.029.228.086l.347-3.347-.347-3.307c-.037-.057-.084-.086-.159-.086-.074 0-.149.029-.228.086l-.399 3.307.399 3.347zm1.298.728c.041.052.091.078.153.078.069 0 .116-.029.153-.086l.299-2.619-.299-2.553c-.037-.057-.084-.086-.153-.086-.069 0-.116.029-.153.086l-.349 2.553.349 2.627zm1.193-.826c.06 0 .091-.037.104-.094l.196-1.332-.196-1.308c-.013-.057-.045-.093-.104-.093-.057 0-.091.039-.104.093l-.165 1.308.165 1.332c.013.057.047.094.104.094m1.074-.094c.051 0 .094-.046.101-.1l.233-2.154-.233-2.105c-.007-.058-.05-.098-.101-.098-.05 0-.09.04-.099.098l-.255 2.105.27 2.154c.009.06.04.1.09.1m1.322-.728c.069 0 .116-.029.153-.086l.299-2.553-.299-2.619c-.037-.057-.084-.086-.153-.086-.069 0-.116.029-.153.086l-.349 2.619.349 2.553c.037.057.084.086.153.086m1.298-.826c.082 0 .149-.029.228-.086l.347-3.307-.347-3.347c-.037-.057-.084-.086-.159-.086-.074 0-.149.029-.228.086l-.399 3.347.399 3.307c.037.057.084.086.159.086m1.193.094c.091-.057.138-.086.228-.086.082 0 .149.029.228.086l.347-3.347-.347-3.307c-.037-.057-.084-.086-.159-.086-.074 0-.149.029-.228.086l-.399 3.307.399 3.347z"/>
</svg>
