<svg xmlns="http://www.w3.org/2000/svg" viewBox="0 0 24 24" fill="white">
  <path d="M1.175 12.225c-.051 0-.094.046-.101.1l-.233 2.154.233 2.105c.007.058.05.098.101.098.05 0 .09-.04.099-.098l.255-2.105-.27-2.154c-.009-.055-.049-.1-.099-.1m-.899-1.574c-.05 0-.091.042-.096.1l-.169 3.728.169 3.674c.005.052.046.094.096.094.049 0 .092-.042.097-.094l.192-3.674-.192-3.728c-.005-.058-.048-.1-.097-.1m2.85-2.375c-.062-.001-.113.05-.12.108l-.21 6.795.21 6.59c.007.057.058.107.12.107.057 0 .105-.05.113-.107l.24-6.59-.24-6.795c-.007-.058-.056-.108-.113-.108m1.899-.69c-.062 0-.115.051-.12.113l-.196 7.482.196 7.24c.005.062.058.113.12.113.06 0 .111-.051.119-.113l.224-7.24-.224-7.482c-.008-.062-.059-.113-.119-.113m3.995-2.4c-.103 0-.186.084-.192.187l-.14 9.795.14 9.47c.006.103.089.187.192.187.102 0 .184-.084.191-.187l.159-9.47-.159-9.795c-.007-.103-.089-.187-.191-.187m1.904.002c-.104 0-.187.084-.193.188l-.132 9.792.132 9.454c.006.104.089.188.193.188.103 0 .187-.084.193-.188l.15-9.454-.15-9.792c-.006-.104-.09-.188-.193-.188m1.907-.001c-.104 0-.187.084-.193.188l-.125 9.793.125 9.454c.006.104.089.187.193.187.104 0 .187-.083.193-.187l.142-9.454-.142-9.793c-.006-.104-.089-.188-.193-.188m1.906-.001c-.103 0-.187.084-.193.188l-.117 9.794.117 9.453c.006.104.09.187.193.187.104 0 .187-.083.193-.187l.133-9.453-.133-9.794c-.006-.104-.089-.188-.193-.188m1.906-.001c-.103 0-.187.084-.193.188l-.109 9.794.109 9.453c.006.104.09.187.193.187.104 0 .187-.083.193-.187l.125-9.453-.125-9.794c-.006-.104-.089-.188-.193-.188m1.906-.001c-.103 0-.187.084-.193.188l-.102 9.795.102 9.452c.006.104.09.187.193.187.104 0 .187-.083.193-.187l.117-9.452-.117-9.795c-.006-.104-.089-.188-.193-.188m1.907-.001c-.103 0-.187.084-.193.188l-.094 9.795.094 9.452c.006.104.09.187.193.187.104 0 .187-.083.193-.187l.109-9.452-.109-9.795c-.006-.104-.089-.188-.193-.188m1.906-.001c-.103 0-.187.084-.193.188l-.086 9.795.086 9.452c.006.104.09.187.193.187.104 0 .187-.083.193-.187l.101-9.452-.101-9.795c-.006-.104-.089-.188-.193-.188"/>
</svg> 