<svg xmlns="http://www.w3.org/2000/svg" viewBox="0 0 24 24">
  <path fill="#ffffff" d="M12 0C5.4 0 0 5.4 0 12s5.4 12 12 12 12-5.4 12-12S18.66 0 12 0zm5.521 17.34c-.24.371-.721.49-1.101.24-3.021-1.851-6.812-2.271-11.282-1.241-.421.09-.842-.181-.931-.601-.09-.421.181-.842.601-.931 4.891-1.121 9.021-.63 12.452 1.441.371.24.49.721.24 1.101zm1.471-3.271c-.301.461-.932.621-1.402.311-3.452-2.131-8.713-2.741-12.804-1.501-.491.15-1.021-.13-1.171-.621-.15-.491.13-1.021.621-1.171 4.671-1.421 10.472-.721 14.473 1.771.461.301.621.932.311 1.402zm.129-3.401c-4.141-2.461-11.012-2.691-14.973-1.491-.601.18-1.231-.181-1.411-.781-.18-.601.181-1.231.781-1.411 4.561-1.381 12.132-1.111 16.893 1.721.571.331.761 1.081.421 1.651-.331.571-1.081.761-1.651.421z"/>
</svg> 